<mxfile host="app.diagrams.net" modified="2023-10-19T12:19:26.772Z" agent="Mozilla/5.0 (Windows NT 10.0; Win64; x64) AppleWebKit/537.36 (KHTML, like Gecko) Chrome/118.0.0.0 Safari/537.36" etag="Zq2BFyCUk_fyey5fpB4Z" version="22.0.5" type="device">
  <diagram name="페이지-1" id="8fm_WQ1DuJL_YonFsq24">
    <mxGraphModel dx="956" dy="608" grid="1" gridSize="10" guides="1" tooltips="1" connect="1" arrows="1" fold="1" page="1" pageScale="1" pageWidth="1200" pageHeight="1600" math="0" shadow="0">
      <root>
        <mxCell id="0" />
        <mxCell id="1" parent="0" />
        <mxCell id="IfK49Af6Ux2kh4kWsc2a-6" style="edgeStyle=orthogonalEdgeStyle;rounded=0;orthogonalLoop=1;jettySize=auto;html=1;exitX=1;exitY=0.5;exitDx=0;exitDy=0;" edge="1" parent="1" source="IfK49Af6Ux2kh4kWsc2a-1" target="IfK49Af6Ux2kh4kWsc2a-3">
          <mxGeometry relative="1" as="geometry" />
        </mxCell>
        <mxCell id="IfK49Af6Ux2kh4kWsc2a-1" value="CNN" style="rounded=0;whiteSpace=wrap;html=1;" vertex="1" parent="1">
          <mxGeometry x="380" y="170" width="90" height="60" as="geometry" />
        </mxCell>
        <mxCell id="IfK49Af6Ux2kh4kWsc2a-3" value="ML Model" style="rounded=0;whiteSpace=wrap;html=1;" vertex="1" parent="1">
          <mxGeometry x="530" y="170" width="100" height="60" as="geometry" />
        </mxCell>
        <mxCell id="IfK49Af6Ux2kh4kWsc2a-9" value="Video&lt;br&gt;Input" style="text;html=1;strokeColor=none;fillColor=none;align=center;verticalAlign=middle;whiteSpace=wrap;rounded=0;" vertex="1" parent="1">
          <mxGeometry x="170" y="340" width="60" height="30" as="geometry" />
        </mxCell>
        <mxCell id="IfK49Af6Ux2kh4kWsc2a-29" value="" style="edgeStyle=orthogonalEdgeStyle;rounded=0;orthogonalLoop=1;jettySize=auto;html=1;" edge="1" parent="1" source="IfK49Af6Ux2kh4kWsc2a-17" target="IfK49Af6Ux2kh4kWsc2a-28">
          <mxGeometry relative="1" as="geometry" />
        </mxCell>
        <mxCell id="IfK49Af6Ux2kh4kWsc2a-17" value="ML Model" style="rounded=0;whiteSpace=wrap;html=1;" vertex="1" parent="1">
          <mxGeometry x="240" y="340" width="120" height="60" as="geometry" />
        </mxCell>
        <mxCell id="IfK49Af6Ux2kh4kWsc2a-18" style="edgeStyle=orthogonalEdgeStyle;rounded=0;orthogonalLoop=1;jettySize=auto;html=1;entryX=0.447;entryY=0.011;entryDx=0;entryDy=0;entryPerimeter=0;" edge="1" parent="1" source="IfK49Af6Ux2kh4kWsc2a-3" target="IfK49Af6Ux2kh4kWsc2a-17">
          <mxGeometry relative="1" as="geometry">
            <Array as="points">
              <mxPoint x="580" y="280" />
              <mxPoint x="294" y="280" />
            </Array>
          </mxGeometry>
        </mxCell>
        <mxCell id="IfK49Af6Ux2kh4kWsc2a-23" value="Image&lt;br&gt;Input" style="text;html=1;strokeColor=none;fillColor=none;align=center;verticalAlign=middle;whiteSpace=wrap;rounded=0;" vertex="1" parent="1">
          <mxGeometry x="305" y="170" width="60" height="30" as="geometry" />
        </mxCell>
        <mxCell id="IfK49Af6Ux2kh4kWsc2a-31" value="" style="edgeStyle=orthogonalEdgeStyle;rounded=0;orthogonalLoop=1;jettySize=auto;html=1;" edge="1" parent="1" source="IfK49Af6Ux2kh4kWsc2a-28" target="IfK49Af6Ux2kh4kWsc2a-30">
          <mxGeometry relative="1" as="geometry" />
        </mxCell>
        <mxCell id="IfK49Af6Ux2kh4kWsc2a-28" value="Angle&lt;br&gt;Calculation" style="rounded=0;whiteSpace=wrap;html=1;" vertex="1" parent="1">
          <mxGeometry x="420" y="340" width="90" height="60" as="geometry" />
        </mxCell>
        <mxCell id="IfK49Af6Ux2kh4kWsc2a-49" value="" style="edgeStyle=orthogonalEdgeStyle;rounded=0;orthogonalLoop=1;jettySize=auto;html=1;" edge="1" parent="1" source="IfK49Af6Ux2kh4kWsc2a-30" target="IfK49Af6Ux2kh4kWsc2a-48">
          <mxGeometry relative="1" as="geometry" />
        </mxCell>
        <mxCell id="IfK49Af6Ux2kh4kWsc2a-30" value="Score&lt;br&gt;Calculation" style="rounded=0;whiteSpace=wrap;html=1;" vertex="1" parent="1">
          <mxGeometry x="550" y="340" width="90" height="60" as="geometry" />
        </mxCell>
        <mxCell id="IfK49Af6Ux2kh4kWsc2a-33" value="" style="edgeStyle=orthogonalEdgeStyle;rounded=0;orthogonalLoop=1;jettySize=auto;html=1;" edge="1" parent="1" source="IfK49Af6Ux2kh4kWsc2a-32" target="IfK49Af6Ux2kh4kWsc2a-17">
          <mxGeometry relative="1" as="geometry" />
        </mxCell>
        <mxCell id="IfK49Af6Ux2kh4kWsc2a-32" value="Camera&lt;br&gt;Sensor" style="shape=parallelogram;perimeter=parallelogramPerimeter;whiteSpace=wrap;html=1;fixedSize=1;" vertex="1" parent="1">
          <mxGeometry x="40" y="340" width="120" height="60" as="geometry" />
        </mxCell>
        <mxCell id="IfK49Af6Ux2kh4kWsc2a-38" value="" style="edgeStyle=orthogonalEdgeStyle;rounded=0;orthogonalLoop=1;jettySize=auto;html=1;" edge="1" parent="1" source="IfK49Af6Ux2kh4kWsc2a-35" target="IfK49Af6Ux2kh4kWsc2a-1">
          <mxGeometry relative="1" as="geometry" />
        </mxCell>
        <mxCell id="IfK49Af6Ux2kh4kWsc2a-35" value="Camera&lt;br&gt;Sensor" style="shape=parallelogram;perimeter=parallelogramPerimeter;whiteSpace=wrap;html=1;fixedSize=1;" vertex="1" parent="1">
          <mxGeometry x="180" y="170" width="120" height="60" as="geometry" />
        </mxCell>
        <mxCell id="IfK49Af6Ux2kh4kWsc2a-42" value="" style="edgeStyle=orthogonalEdgeStyle;rounded=0;orthogonalLoop=1;jettySize=auto;html=1;" edge="1" parent="1" source="IfK49Af6Ux2kh4kWsc2a-41" target="IfK49Af6Ux2kh4kWsc2a-1">
          <mxGeometry relative="1" as="geometry" />
        </mxCell>
        <mxCell id="IfK49Af6Ux2kh4kWsc2a-41" value="COCO&lt;br&gt;Dataset" style="shape=parallelogram;perimeter=parallelogramPerimeter;whiteSpace=wrap;html=1;fixedSize=1;" vertex="1" parent="1">
          <mxGeometry x="365" y="60" width="120" height="60" as="geometry" />
        </mxCell>
        <mxCell id="IfK49Af6Ux2kh4kWsc2a-44" value="" style="edgeStyle=orthogonalEdgeStyle;rounded=0;orthogonalLoop=1;jettySize=auto;html=1;" edge="1" parent="1" source="IfK49Af6Ux2kh4kWsc2a-43" target="IfK49Af6Ux2kh4kWsc2a-35">
          <mxGeometry relative="1" as="geometry" />
        </mxCell>
        <mxCell id="IfK49Af6Ux2kh4kWsc2a-43" value="Start" style="ellipse;whiteSpace=wrap;html=1;" vertex="1" parent="1">
          <mxGeometry x="50" y="175" width="80" height="50" as="geometry" />
        </mxCell>
        <mxCell id="IfK49Af6Ux2kh4kWsc2a-53" value="" style="edgeStyle=orthogonalEdgeStyle;rounded=0;orthogonalLoop=1;jettySize=auto;html=1;" edge="1" parent="1" source="IfK49Af6Ux2kh4kWsc2a-48" target="IfK49Af6Ux2kh4kWsc2a-52">
          <mxGeometry relative="1" as="geometry" />
        </mxCell>
        <mxCell id="IfK49Af6Ux2kh4kWsc2a-59" value="" style="edgeStyle=orthogonalEdgeStyle;rounded=0;orthogonalLoop=1;jettySize=auto;html=1;entryX=0.5;entryY=1;entryDx=0;entryDy=0;" edge="1" parent="1" source="IfK49Af6Ux2kh4kWsc2a-48" target="IfK49Af6Ux2kh4kWsc2a-28">
          <mxGeometry relative="1" as="geometry">
            <mxPoint x="460" y="500" as="targetPoint" />
            <Array as="points">
              <mxPoint x="745" y="460" />
              <mxPoint x="465" y="460" />
            </Array>
          </mxGeometry>
        </mxCell>
        <mxCell id="IfK49Af6Ux2kh4kWsc2a-48" value="Pose&lt;br&gt;Judgement" style="rhombus;whiteSpace=wrap;html=1;" vertex="1" parent="1">
          <mxGeometry x="690" y="330" width="110" height="80" as="geometry" />
        </mxCell>
        <mxCell id="IfK49Af6Ux2kh4kWsc2a-52" value="Warning" style="shape=parallelogram;perimeter=parallelogramPerimeter;whiteSpace=wrap;html=1;fixedSize=1;" vertex="1" parent="1">
          <mxGeometry x="830" y="340" width="120" height="60" as="geometry" />
        </mxCell>
        <mxCell id="IfK49Af6Ux2kh4kWsc2a-57" value="" style="endArrow=classic;html=1;rounded=0;exitX=0.5;exitY=0;exitDx=0;exitDy=0;entryX=0.361;entryY=0.001;entryDx=0;entryDy=0;entryPerimeter=0;" edge="1" parent="1" source="IfK49Af6Ux2kh4kWsc2a-52" target="IfK49Af6Ux2kh4kWsc2a-28">
          <mxGeometry width="50" height="50" relative="1" as="geometry">
            <mxPoint x="889.9999999999998" y="369.94" as="sourcePoint" />
            <mxPoint x="451.68000000000006" y="370.00000000000006" as="targetPoint" />
            <Array as="points">
              <mxPoint x="890" y="309.94" />
              <mxPoint x="670" y="309.94" />
              <mxPoint x="452" y="309.94" />
            </Array>
          </mxGeometry>
        </mxCell>
      </root>
    </mxGraphModel>
  </diagram>
</mxfile>
